#!OML:ASF I:\golf\golf\golf 2\Subject 1\2002-09-07\Subject1.ASF
:FULLY-SPECIFIED
:DEGREES
353
root -6.92819 17.9878 -3.91838 -170.157 -4.81206 -175.038
lowerback -11.3197 17.4578 14.5837
upperback -14.7363 19.4588 1.19266
thorax -5.88593 7.32629 -4.06533
lowerneck -4.37335 -23.1059 -4.30364
upperneck 7.90536 -33.5422 9.83853
head 5.43848 -16.4668 0.943832
rclavicle -1.05753e-013 -5.40694e-014
rhumerus 108.309 30.5648 -50.3958
rradius 75.9679
rwrist 13.0384
rhand -49.3463 34.2333
rfingers 7.12502
rthumb -21.9615 5.46
lclavicle -1.05753e-013 -5.40694e-014
lhumerus 61.3278 26.813 60.23
lradius 87.1374
lwrist 8.39376
lhand 137.985 200.684
lfingers 7.12502
lthumb -194.91 -129.873
rfemur 20.4114 -5.85039 22.9932
rtibia 11.0764
rfoot 33.4926 -32.9093
rtoes 24.1009
lfemur -23.7004 -18.0878 -15.4245
ltibia 26.4436
lfoot 46.3989 -43.3154
ltoes 55.0163
354
root -6.92279 17.9852 -3.94515 -170.181 -5.09135 -174.997
lowerback -11.4795 17.4347 14.5756
upperback -14.7633 19.399 1.09778
thorax -5.81169 7.30092 -4.13111
lowerneck -4.35673 -23.0656 -4.41641
upperneck 8.01859 -33.4242 9.64399
head 5.44663 -16.4145 0.915663
rclavicle 6.36111e-014 6.59965e-014
rhumerus 108.284 30.9922 -50.4633
rradius 76.0615
rwrist 13.4688
rhand -50.4813 34.8564
rfingers 7.12502
rthumb -23.051 6.21503
lclavicle 6.36111e-014 6.59965e-014
lhumerus 61.1906 27.2223 59.5724
lradius 87.0057
lwrist 7.52303
lhand 138.225 200.498
lfingers 7.12502
lthumb -194.678 -130.041
rfemur 20.4402 -5.84057 23.1131
rtibia 11.1335
rfoot 33.3781 -33.0479
rtoes 24.883
lfemur -23.6854 -18.0355 -15.3782
ltibia 26.5076
lfoot 46.8032 -43.5917
ltoes 54.9216
355
root -6.91955 17.9861 -3.97128 -170.167 -5.31399 -175.034
lowerback -11.6259 17.4563 14.5302
upperback -14.7988 19.4084 0.942935
thorax -5.73231 7.3134 -4.23078
lowerneck -4.41099 -23.0502 -4.5336
upperneck 8.21244 -33.3637 9.47165
head 5.49977 -16.3837 0.870095
rclavicle -4.65156e-014 -7.43455e-014
rhumerus 107.87 30.7007 -50.6388
rradius 76.427
rwrist 12.9875
rhand -51.3083 35.5087
rfingers 7.12502
rthumb -23.8443 6.96864
lclavicle -4.65156e-014 -7.43455e-014
lhumerus 60.9977 27.4433 58.847
lradius 86.8427
lwrist 6.67861
lhand 138.019 200.586
lfingers 7.12502
lthumb -194.877 -129.969
rfemur 20.4452 -5.755 23.1471
rtibia 11.1346
rfoot 33.752 -32.8597
rtoes 25.1687
lfemur -23.6961 -17.9792 -15.4224
ltibia 26.5636
lfoot 46.9837 -44.1819
ltoes 54.6241
356
root -6.91667 17.9849 -3.99538 -170.098 -5.51556 -175.105
lowerback -11.7889 17.5134 14.4767
upperback -14.8353 19.4638 0.744876
thorax -5.62496 7.35098 -4.35521
lowerneck -4.565 -23.0663 -4.64418
upperneck 8.42888 -33.3559 9.33368
head 5.58385 -16.3707 0.810716
rclavicle 2.38542e-015 -4.6118e-014
rhumerus 107.484 30.5394 -50.7782
rradius 76.643
rwrist 12.5939
rhand -52.1704 36.1905
rfingers 7.12502
rthumb -24.6709 7.76088
lclavicle 2.38542e-015 -4.6118e-014
lhumerus 60.7369 27.5208 58.04
lradius 86.6664
lwrist 5.70623
lhand 137.724 200.672
lfingers 7.12502
lthumb -195.161 -129.904
rfemur 20.395 -5.68824 23.163
rtibia 11.1499
rfoot 34.4534 -32.3284
rtoes 24.4921
lfemur -23.7344 -17.9281 -15.4952
ltibia 26.59
lfoot 47.2825 -44.4387
ltoes 54.5029
357
root -6.91258 17.9842 -4.01536 -169.995 -5.6915 -175.188
lowerback -11.9312 17.5467 14.3837
upperback -14.9012 19.4899 0.564736
thorax -5.58367 7.36763 -4.46101
lowerneck -4.71546 -23.0413 -4.58929
upperneck 8.64079 -33.2743 9.06821
head 5.614 -16.328 0.724482
rclavicle 7.63333e-014 1.94809e-014
rhumerus 107.097 30.6538 -51.0527
rradius 76.6874
rwrist 12.5064
rhand -53.04 36.9049
rfingers 7.12502
rthumb -25.504 8.59173
lclavicle 7.63333e-014 1.94809e-014
lhumerus 60.3782 27.645 57.1458
lradius 86.4584
lwrist 4.78825
lhand 137.594 200.789
lfingers 7.12502
lthumb -195.286 -129.796
rfemur 20.2668 -5.61959 23.2011
rtibia 11.2313
rfoot 34.8188 -32.0864
rtoes 23.8027
lfemur -23.8027 -17.8597 -15.5583
ltibia 26.5901
lfoot 47.7038 -44.4168
ltoes 54.4934
358
root -6.9105 17.9852 -4.03249 -169.956 -5.85015 -175.202
lowerback -12.0043 17.5413 14.3776
upperback -14.9763 19.4653 0.454305
thorax -5.59816 7.34508 -4.56376
lowerneck -4.834 -22.9491 -4.3716
upperneck 8.91027 -33.0829 8.61286
head 5.59373 -16.2415 0.600448
rclavicle -5.06901e-014 -7.87187e-014
rhumerus 106.642 31.0337 -51.4975
rradius 76.6773
rwrist 12.5547
rhand -53.5558 38.0096
rfingers 7.12502
rthumb -25.998 9.76805
lclavicle -5.06901e-014 -7.87187e-014
lhumerus 59.9178 27.8628 56.1811
lradius 86.1997
lwrist 4.15081
lhand 137.625 200.691
lfingers 7.12502
lthumb -195.257 -129.891
rfemur 20.1533 -5.61521 23.2599
rtibia 11.375
rfoot 35.1554 -31.8692
rtoes 23.4229
lfemur -23.8181 -17.8217 -15.559
ltibia 26.5915
lfoot 48.0774 -44.3161
ltoes 54.6616
359
root -6.90911 17.9833 -4.04946 -169.973 -5.96641 -175.266
lowerback -12.0332 17.5141 14.3858
upperback -14.9889 19.4335 0.345408
thorax -5.56079 7.33201 -4.67639
lowerneck -4.93069 -22.8426 -4.27865
upperneck 9.10132 -32.915 8.41828
head 5.61182 -16.1593 0.545163
rclavicle 8.94531e-015 7.55382e-015
rhumerus 105.998 30.8921 -51.9374
rradius 76.9593
rwrist 11.923
rhand -53.8071 39.3093
rfingers 7.12502
rthumb -26.2387 11.1034
lclavicle 8.94531e-015 7.55382e-015
lhumerus 59.49 27.9952 55.2928
lradius 85.9163
lwrist 3.60953
lhand 137.756 200.354
lfingers 7.12502
lthumb -195.13 -130.219
rfemur 20.1104 -5.75483 23.1605
rtibia 11.5473
rfoot 35.866 -31.0846
rtoes 22.5121
lfemur -23.7453 -17.8641 -15.6439
ltibia 26.5969
lfoot 48.2833 -44.2068
ltoes 54.8745
360
root -6.90399 17.9795 -4.06677 -169.958 -6.00858 -175.366
lowerback -12.0634 17.5355 14.35
upperback -14.9757 19.4766 0.198872
thorax -5.47942 7.36794 -4.78756
lowerneck -4.94483 -22.7825 -4.39518
upperneck 9.07092 -32.8373 8.57264
head 5.64397 -16.1154 0.594896
rclavicle -5.26779e-014 -1.21259e-013
rhumerus 105.511 30.9257 -52.2233
rradius 77.0446
rwrist 11.4989
rhand -54.3864 39.9342
rfingers 7.12502
rthumb -26.7932 11.812
lclavicle -5.26779e-014 -1.21259e-013
lhumerus 59.148 27.9822 54.4486
lradius 85.6373
lwrist 3.13399
lhand 137.786 200.232
lfingers 7.12502
lthumb -195.101 -130.338
rfemur 20.0936 -5.8271 23.0373
rtibia 11.6559
rfoot 35.9961 -30.9225
rtoes 22.6721
lfemur -23.6854 -17.862 -15.7673
ltibia 26.6275
lfoot 48.2602 -44.2979
ltoes 54.827
361
root -6.89876 17.979 -4.08137 -169.874 -6.09383 -175.339
lowerback -12.1724 17.5846 14.3703
upperback -14.9717 19.5186 0.123798
thorax -5.37999 7.39385 -4.83131
lowerneck -4.94307 -22.7605 -4.63883
upperneck 8.99652 -32.7847 8.72426
head 5.67914 -16.0842 0.654287
rclavicle -5.06901e-014 -3.29983e-014
rhumerus 105.138 31.1295 -52.396
rradius 76.9893
rwrist 11.3382
rhand -55.2911 40.0816
rfingers 7.12502
rthumb -27.6586 12.095
lclavicle -5.06901e-014 -3.29983e-014
lhumerus 58.7079 27.9929 53.5431
lradius 85.3928
lwrist 2.81305
lhand 137.512 200.564
lfingers 7.12502
lthumb -195.366 -130.027
rfemur 20.0231 -5.8014 23.1434
rtibia 11.6554
rfoot 35.6031 -31.3886
rtoes 23.2265
lfemur -23.7663 -17.8385 -15.7035
ltibia 26.6838
lfoot 48.3866 -44.2609
ltoes 54.8845
362
root -6.8937 17.9798 -4.09377 -169.81 -6.2127 -175.193
lowerback -12.312 17.6032 14.443
upperback -14.9607 19.4962 0.160104
thorax -5.2941 7.37988 -4.79234
lowerneck -4.89674 -22.6944 -4.89075
upperneck 8.973 -32.6648 8.80246
head 5.70791 -16.0249 0.708181
rclavicle 3.97569e-015 1.98785e-015
rhumerus 104.715 31.2687 -52.5524
rradius 76.9888
rwrist 11.1487
rhand -56.0338 40.7508
rfingers 7.12502
rthumb -28.3686 12.8802
lclavicle 3.97569e-015 1.98785e-015
lhumerus 58.1822 28.0185 52.7052
lradius 85.1167
lwrist 2.47675
lhand 137.296 201.052
lfingers 7.12502
lthumb -195.573 -129.555
rfemur 19.9452 -5.78002 23.4134
rtibia 11.6532
rfoot 35.4341 -31.6629
rtoes 23.3663
lfemur -23.8523 -17.8308 -15.4902
ltibia 26.7244
lfoot 48.5499 -44.2599
ltoes 55.0435
363
root -6.88465 17.979 -4.10716 -169.83 -6.2569 -175.018
lowerback -12.3261 17.6322 14.5516
upperback -14.9725 19.5175 0.170391
thorax -5.2721 7.38048 -4.8193
lowerneck -4.78023 -22.6097 -5.07093
upperneck 8.99599 -32.5426 8.86183
head 5.72676 -15.9697 0.759421
rclavicle -8.36883e-014 -6.83819e-014
rhumerus 104.156 31.4292 -52.878
rradius 76.99
rwrist 10.7699
rhand -56.1743 42.3972
rfingers 7.12502
rthumb -28.5028 14.549
lclavicle -8.36883e-014 -6.83819e-014
lhumerus 58.0206 27.8224 52.3363
lradius 84.5798
lwrist 1.91114
lhand 137.533 200.97
lfingers 7.12502
lthumb -195.345 -129.619
rfemur 19.9158 -5.64297 23.7398
rtibia 11.732
rfoot 35.1652 -32.1672
rtoes 24.3686
lfemur -23.8091 -17.7468 -15.2853
ltibia 26.7206
lfoot 48.6154 -44.3906
ltoes 55.1407
